<svg width="16" height="16" viewBox="0 0 16 16" fill="none" xmlns="http://www.w3.org/2000/svg">
<path d="M7.99637 15.5C12.1071 15.5 15.5 12.1054 15.5 8C15.5 3.89458 12.0998 0.5 7.98912 0.5C3.88569 0.5 0.5 3.89458 0.5 8C0.5 12.1054 3.89294 15.5 7.99637 15.5ZM5.52417 11.1625C5.13992 11.1625 4.83543 10.8578 4.83543 10.4662C4.83543 10.2921 4.90793 10.118 5.04567 9.98743L7.01764 8.00725L5.04567 6.03433C4.90793 5.90377 4.83543 5.72969 4.83543 5.55561C4.83543 5.16393 5.13992 4.86654 5.52417 4.86654C5.72716 4.86654 5.88666 4.93182 6.01716 5.06238L7.99637 7.0353L9.98284 5.05513C10.1278 4.91731 10.2801 4.85203 10.4758 4.85203C10.8601 4.85203 11.1646 5.15667 11.1646 5.5411C11.1646 5.72244 11.0921 5.88201 10.9543 6.02708L8.98236 8.00725L10.9543 9.98017C11.0848 10.118 11.1573 10.2848 11.1573 10.4662C11.1573 10.8578 10.8528 11.1625 10.4613 11.1625C10.2656 11.1625 10.0988 11.0899 9.96109 10.9594L7.99637 8.99371L6.03166 10.9594C5.90116 11.0972 5.72716 11.1625 5.52417 11.1625Z" fill="#C7C7CC"/>
</svg>
