<svg width="16" height="15" viewBox="0 0 16 15" fill="none" xmlns="http://www.w3.org/2000/svg">
<path d="M6.74184 12.3142C7.93966 12.3142 9.06215 11.9526 9.9963 11.3349L13.296 14.6421C13.5144 14.853 13.7932 14.9585 14.0945 14.9585C14.7198 14.9585 15.1793 14.4688 15.1793 13.8511C15.1793 13.5648 15.0814 13.2861 14.8705 13.0751L11.5934 9.78299C12.2714 8.81871 12.6707 7.65102 12.6707 6.38539C12.6707 3.1234 10.0038 0.456543 6.74184 0.456543C3.48737 0.456543 0.812988 3.1234 0.812988 6.38539C0.812988 9.64739 3.47984 12.3142 6.74184 12.3142ZM6.74184 10.7322C4.35372 10.7322 2.39502 8.77351 2.39502 6.38539C2.39502 3.99728 4.35372 2.03857 6.74184 2.03857C9.12995 2.03857 11.0887 3.99728 11.0887 6.38539C11.0887 8.77351 9.12995 10.7322 6.74184 10.7322Z" fill="#C7C7CC"/>
</svg>
